<?xml version="1.0" encoding="utf-8"?>
<!-- Generator: Adobe Illustrator 25.4.1, SVG Export Plug-In . SVG Version: 6.00 Build 0)  -->
<svg version="1.1" id="Layer_1" xmlns="http://www.w3.org/2000/svg" xmlns:xlink="http://www.w3.org/1999/xlink" x="0px" y="0px"
	 viewBox="60 70 583.97 180" style="enable-background:new 0 0 683.97 321.61;" xml:space="preserve">
<style type="text/css">
	.st0{fill:#002664;}
	.st1{fill-rule:evenodd;clip-rule:evenodd;fill:#002664;}
</style>
<g>
	<path class="st0" d="M92.37,158.37h5.72v1.75h-0.67c-0.16,0-0.63,0-0.63,0.45c0,0.12,0.06,0.45,0.08,0.53l1.55,6.78h0.04l2.3-9.51
		h2.89l2.14,9.51h0.04l1.63-6.53c0.06-0.2,0.12-0.47,0.12-0.73c0-0.45-0.33-0.51-0.88-0.51h-0.33v-1.75h5.11v1.75
		c-0.82-0.02-1.18,0.14-1.53,1.38l-3.01,10.65h-2.89l-2.12-9.02h-0.04l-2.22,9.02h-2.93l-2.75-10.42c-0.37-1.41-0.84-1.61-1.34-1.61
		h-0.28L92.37,158.37L92.37,158.37z M203.21,166.15v3.83h3.18c0.9,0,0.94-0.24,0.94-0.86v-0.81h2.24v3.77H198.9v-1.75h0.49
		c0.59,0,0.81-0.24,0.81-0.9v-8.37c0-0.55-0.02-0.86-0.81-0.86h-0.49v-1.75h10.44v3.58h-2.24v-0.69c0-0.71-0.3-0.77-0.96-0.77h-2.93
		V164h2.24c0.31,0,0.39-0.04,0.39-0.43v-0.61h2.14v4.32h-2.14v-0.71c0-0.26-0.06-0.43-0.39-0.43L203.21,166.15L203.21,166.15z
		 M150.64,217.76c-1.77-0.94-3.75-2.1-3.75-4.38c0-0.81,0.39-3.71,4.7-3.71c1.43,0,2.85,0.28,4.15,0.82v3.48h-2.34v-0.67
		c0-0.59,0-1.85-1.75-1.85c-1.61,0-1.83,1.14-1.83,1.59c0,1.2,1.36,1.87,3.14,2.73c2.38,1.14,3.34,2.32,3.34,4.19
		c0,1.81-1.04,3.07-1.99,3.52c-1.3,0.65-2.99,0.65-3.38,0.65c-1.93,0-3.22-0.45-4.15-0.81v-3.91h2.44v0.71c0,0.47,0,2.08,2,2.08
		c1.26,0,2.05-0.69,2.05-1.79C153.27,219.19,152.52,218.78,150.64,217.76z M151.61,170.2c2.73,0,4.94-2.21,4.94-4.94
		s-2.21-4.94-4.94-4.94s-4.94,2.21-4.94,4.94C146.67,167.99,148.88,170.2,151.61,170.2z M160.44,90.37v-2.62
		c0-4.88-3.95-8.83-8.83-8.83s-8.83,3.95-8.83,8.83v2.62C105.3,94.74,76.2,126.6,76.2,165.26c0,41.64,33.76,75.4,75.4,75.4
		s75.4-33.76,75.4-75.4C227.01,126.6,197.92,94.74,160.44,90.37z M147.08,87.75c0-2.5,2.03-4.53,4.53-4.53s4.53,2.03,4.53,4.53V90
		c-1.5-0.09-3.01-0.14-4.53-0.14s-3.03,0.05-4.53,0.14V87.75z M151.61,155.91c5.16,0,9.35,4.19,9.35,9.35s-4.19,9.35-9.35,9.35
		s-9.35-4.19-9.35-9.35S146.44,155.91,151.61,155.91z M217.75,171.08l-4.14-0.17c-0.24-0.02-0.46,0.16-0.48,0.4l-0.09,0.82
		c-0.03,0.24,0.15,0.46,0.39,0.5l4.09,0.69c-0.19,1.56-0.43,3.11-0.73,4.64l-4.11-0.6c-0.24-0.04-0.47,0.11-0.52,0.35l-0.17,0.81
		c-0.05,0.24,0.1,0.47,0.33,0.53l4,1.12c-0.35,1.53-0.76,3.05-1.21,4.54l-4.03-1.03c-0.23-0.07-0.48,0.06-0.56,0.3l-0.25,0.78
		c-0.08,0.23,0.05,0.48,0.28,0.57l3.86,1.53c-0.51,1.49-1.07,2.95-1.68,4.38l-3.9-1.45c-0.23-0.09-0.48,0.01-0.58,0.24l-0.34,0.75
		c-0.1,0.22,0,0.48,0.22,0.59l3.68,1.93c-0.5,1.08-1.04,2.15-1.6,3.2l-28.39-14.32c-0.22-0.12-0.49-0.04-0.61,0.17
		c-0.12,0.21-0.05,0.49,0.16,0.61l26.59,17.43c-0.63,1.01-1.29,2.01-1.97,2.98l-3.5-2.22c-0.2-0.14-0.48-0.09-0.62,0.11l-0.48,0.67
		c-0.14,0.2-0.1,0.47,0.09,0.62l3.19,2.64c-0.94,1.25-1.93,2.47-2.96,3.65l-3.25-2.57c-0.19-0.16-0.46-0.14-0.63,0.04l-0.55,0.61
		c-0.16,0.18-0.15,0.46,0.02,0.63l2.89,2.96c-1.07,1.15-2.18,2.25-3.32,3.32l-2.96-2.89c-0.17-0.18-0.45-0.19-0.63-0.02l-0.61,0.55
		c-0.18,0.16-0.2,0.44-0.04,0.63l2.57,3.25c-1.18,1.03-2.4,2.01-3.65,2.96l-2.64-3.19c-0.15-0.19-0.43-0.23-0.62-0.09l-0.67,0.48
		c-0.2,0.14-0.25,0.42-0.11,0.62l2.22,3.5c-0.97,0.68-1.97,1.34-2.98,1.97l-17.43-26.59c-0.13-0.21-0.4-0.28-0.61-0.16
		s-0.29,0.39-0.17,0.61l14.32,28.39c-1.05,0.56-2.11,1.09-3.2,1.6l-1.93-3.68c-0.11-0.22-0.37-0.31-0.59-0.22l-0.75,0.34
		c-0.22,0.1-0.33,0.36-0.24,0.58l1.45,3.9c-1.44,0.61-2.9,1.17-4.38,1.68l-1.53-3.86c-0.08-0.23-0.33-0.35-0.57-0.28l-0.78,0.25
		c-0.23,0.08-0.36,0.32-0.3,0.56l1.03,4.03c-1.49,0.46-3,0.86-4.54,1.21l-1.12-4c-0.06-0.24-0.29-0.38-0.53-0.33l-0.81,0.17
		c-0.24,0.05-0.39,0.28-0.35,0.52l0.6,4.11c-1.53,0.3-3.08,0.54-4.64,0.73l-0.69-4.09c-0.03-0.24-0.25-0.41-0.5-0.39l-0.82,0.09
		c-0.24,0.03-0.42,0.24-0.4,0.48l0.17,4.14c-1.55,0.13-3.11,0.22-4.69,0.24l-0.26-4.13c-0.01-0.24-0.21-0.44-0.45-0.44h-0.82
		c-0.24,0-0.44,0.19-0.45,0.44l-0.26,4.13c-1.58-0.03-3.14-0.11-4.69-0.24l0.17-4.14c0.02-0.24-0.16-0.46-0.4-0.48l-0.82-0.09
		c-0.24-0.03-0.46,0.15-0.5,0.39l-0.69,4.09c-1.56-0.19-3.11-0.43-4.64-0.73l0.6-4.11c0.04-0.24-0.11-0.47-0.35-0.52l-0.81-0.17
		c-0.24-0.05-0.47,0.1-0.53,0.33l-1.12,4c-1.53-0.35-3.05-0.76-4.54-1.21l1.03-4.03c0.07-0.23-0.06-0.48-0.3-0.56l-0.78-0.25
		c-0.23-0.08-0.48,0.05-0.57,0.28l-1.53,3.86c-1.49-0.51-2.95-1.07-4.38-1.68l1.45-3.9c0.09-0.23-0.01-0.48-0.24-0.58l-0.75-0.34
		c-0.22-0.1-0.48,0-0.59,0.22l-1.93,3.68c-1.08-0.5-2.15-1.04-3.2-1.6l14.32-28.39c0.12-0.22,0.04-0.49-0.17-0.61
		c-0.21-0.12-0.49-0.05-0.61,0.16l-17.43,26.59c-1.01-0.63-2.01-1.29-2.98-1.97l2.22-3.5c0.14-0.2,0.09-0.48-0.11-0.62l-0.67-0.48
		c-0.2-0.14-0.47-0.1-0.62,0.09l-2.64,3.19c-1.25-0.94-2.47-1.93-3.65-2.96l2.57-3.25c0.16-0.19,0.14-0.46-0.04-0.63l-0.61-0.55
		c-0.18-0.16-0.46-0.15-0.63,0.02l-2.96,2.89c-1.15-1.07-2.25-2.18-3.32-3.32l2.89-2.96c0.18-0.17,0.19-0.45,0.02-0.63l-0.55-0.61
		c-0.16-0.18-0.44-0.2-0.63-0.04l-3.25,2.57c-1.03-1.18-2.01-2.4-2.96-3.65l3.19-2.64c0.19-0.15,0.23-0.43,0.09-0.62l-0.48-0.67
		c-0.14-0.2-0.42-0.25-0.62-0.11l-3.5,2.22c-0.68-0.97-1.34-1.97-1.97-2.98l26.59-17.43c0.21-0.13,0.28-0.4,0.16-0.61
		c-0.12-0.21-0.39-0.29-0.61-0.17L93,196.5c-0.56-1.05-1.09-2.12-1.6-3.2l3.68-1.93c0.22-0.11,0.31-0.37,0.22-0.59l-0.34-0.75
		c-0.1-0.22-0.36-0.33-0.58-0.24l-3.9,1.45c-0.61-1.44-1.17-2.9-1.68-4.38l3.86-1.53c0.23-0.08,0.35-0.33,0.28-0.57l-0.25-0.78
		c-0.08-0.23-0.32-0.36-0.56-0.3l-4.03,1.03c-0.46-1.49-0.86-3-1.21-4.54l4-1.12c0.24-0.06,0.38-0.29,0.33-0.53l-0.17-0.81
		c-0.05-0.24-0.28-0.39-0.52-0.35l-4.11,0.6c-0.3-1.53-0.54-3.08-0.73-4.64l4.09-0.69c0.24-0.03,0.41-0.25,0.39-0.5l-0.09-0.82
		c-0.03-0.24-0.24-0.42-0.48-0.4l-4.14,0.17c-0.13-1.55-0.22-3.11-0.24-4.69l4.13-0.26c0.24-0.01,0.44-0.21,0.44-0.45v-0.82
		c0-0.24-0.19-0.44-0.44-0.45l-4.13-0.26c0.03-1.58,0.11-3.14,0.24-4.69l4.14,0.17c0.24,0.02,0.46-0.16,0.48-0.4l0.09-0.82
		c0.03-0.24-0.15-0.46-0.39-0.5l-4.09-0.69c0.19-1.56,0.43-3.11,0.73-4.64l4.11,0.6c0.24,0.04,0.47-0.11,0.52-0.35l0.17-0.81
		c0.05-0.24-0.1-0.47-0.33-0.53l-4-1.12c0.35-1.53,0.76-3.05,1.21-4.54l4.03,1.03c0.23,0.07,0.48-0.06,0.56-0.3l0.25-0.78
		c0.08-0.23-0.05-0.48-0.28-0.57l-3.86-1.53c0.51-1.49,1.07-2.95,1.68-4.38l3.9,1.45c0.23,0.09,0.48-0.01,0.58-0.24l0.34-0.75
		c0.1-0.22,0-0.48-0.22-0.59l-3.68-1.93c0.5-1.08,1.04-2.15,1.6-3.2l28.39,14.32c0.22,0.12,0.49,0.04,0.61-0.17
		c0.12-0.21,0.05-0.49-0.16-0.61l-26.59-17.43c0.63-1.01,1.29-2.01,1.97-2.98l3.5,2.22c0.2,0.14,0.48,0.09,0.62-0.11l0.48-0.67
		c0.14-0.2,0.1-0.47-0.09-0.62l-3.19-2.64c0.94-1.25,1.93-2.47,2.96-3.65l3.25,2.57c0.19,0.16,0.46,0.14,0.63-0.04l0.55-0.61
		c0.16-0.18,0.15-0.46-0.02-0.63l-2.89-2.96c1.07-1.15,2.18-2.25,3.32-3.32l2.96,2.89c0.17,0.18,0.45,0.19,0.63,0.02l0.61-0.55
		c0.18-0.16,0.2-0.44,0.04-0.63l-2.57-3.25c1.18-1.03,2.4-2.01,3.65-2.96l2.64,3.19c0.15,0.19,0.43,0.23,0.62,0.09l0.67-0.48
		c0.2-0.14,0.25-0.42,0.11-0.62l-2.22-3.5c0.97-0.68,1.97-1.34,2.98-1.97l17.43,26.59c0.13,0.21,0.4,0.28,0.61,0.16
		s0.29-0.39,0.17-0.61l-14.32-28.39c1.05-0.56,2.11-1.09,3.2-1.6l1.93,3.68c0.11,0.22,0.37,0.31,0.59,0.22l0.75-0.34
		c0.22-0.1,0.33-0.36,0.24-0.58l-1.45-3.9c1.44-0.61,2.9-1.17,4.38-1.68l1.53,3.86c0.08,0.23,0.33,0.35,0.57,0.28l0.78-0.25
		c0.23-0.08,0.36-0.32,0.3-0.56l-1.03-4.03c1.49-0.46,3-0.86,4.54-1.21l1.12,4c0.06,0.24,0.29,0.38,0.53,0.33l0.81-0.17
		c0.24-0.05,0.39-0.28,0.35-0.52l-0.6-4.11c1.53-0.3,3.08-0.54,4.64-0.73l0.69,4.09c0.03,0.24,0.25,0.41,0.5,0.39l0.82-0.09
		c0.24-0.03,0.42-0.24,0.4-0.48l-0.17-4.14c1.55-0.13,3.11-0.22,4.69-0.24l0.16,2.46h-1.13c-0.43,0-0.78,0.35-0.78,0.78v9.28
		c-2.37,4.02-3.28,10.38-2.67,12.09c0.61,1.7,2.92,1.94,2.92,1.94s-2.73,2.55-3.3,8.21c-0.57,5.67,1.66,7.1,1.66,7.1
		s-2.55,1.7-2.55,5.19c0,2.83,1.53,4.55,2.39,5.29c-4.48,1.41-8.03,4.9-9.53,9.33c-1.29-0.12-6.65-0.45-10,2.21
		c0,0-0.37-1.67-2.9-1.67s-5.79,1.6-5.79,1.6h-6.42c-0.43,0-0.78,0.35-0.78,0.78v3.62c0,0.43,0.35,0.78,0.78,0.78h6.42
		c0,0,3.26,1.6,5.79,1.6s2.9-1.67,2.9-1.67c3.35,2.66,8.71,2.33,10,2.21c1.47,4.34,4.9,7.77,9.23,9.24
		c-0.13,1.36-0.42,6.64,2.21,9.95c0,0-1.67,0.37-1.67,2.9s1.6,5.79,1.6,5.79v8.2c0,0.43,0.35,0.78,0.78,0.78h3.62
		c0.43,0,0.78-0.35,0.78-0.78v-8.2c0,0,1.6-3.26,1.6-5.79s-1.67-2.9-1.67-2.9c2.63-3.31,2.34-8.6,2.21-9.95
		c4.34-1.47,7.77-4.9,9.23-9.24c1.29,0.12,6.65,0.45,10-2.21c0,0,0.37,1.67,2.9,1.67s5.79-1.6,5.79-1.6h10.5
		c0.43,0,0.78-0.35,0.78-0.78v-3.62c0-0.43-0.35-0.78-0.78-0.78h-10.5c0,0-3.26-1.6-5.79-1.6s-2.9,1.67-2.9,1.67
		c-3.35-2.66-8.71-2.33-10-2.21c-1.5-4.44-5.05-7.92-9.53-9.33c0.85-0.74,2.39-2.46,2.39-5.29c0-3.49-2.55-5.19-2.55-5.19
		s2.24-1.43,1.66-7.1c-0.57-5.67-3.3-8.21-3.3-8.21s2.31-0.23,2.92-1.94c0.61-1.7-0.3-8.07-2.67-12.09v-9.28
		c0-0.43-0.35-0.78-0.78-0.78h-1.13l0.16-2.46c1.58,0.03,3.14,0.11,4.69,0.24l-0.17,4.14c-0.02,0.24,0.16,0.46,0.4,0.48l0.82,0.09
		c0.24,0.03,0.46-0.15,0.5-0.39l0.69-4.09c1.56,0.19,3.11,0.43,4.64,0.73l-0.6,4.11c-0.04,0.24,0.11,0.47,0.35,0.52l0.81,0.17
		c0.24,0.05,0.47-0.1,0.53-0.33l1.12-4c1.53,0.35,3.05,0.76,4.54,1.21l-1.03,4.03c-0.07,0.23,0.06,0.48,0.3,0.56l0.78,0.25
		c0.23,0.08,0.48-0.05,0.57-0.28l1.53-3.86c1.49,0.51,2.95,1.07,4.38,1.68l-1.45,3.9c-0.09,0.23,0.01,0.48,0.24,0.58l0.75,0.34
		c0.22,0.1,0.48,0,0.59-0.22l1.93-3.68c1.08,0.5,2.15,1.04,3.2,1.6l-14.32,28.39c-0.12,0.22-0.04,0.49,0.17,0.61
		c0.21,0.12,0.49,0.05,0.61-0.16l17.43-26.59c1.01,0.63,2.01,1.29,2.98,1.97l-2.22,3.5c-0.14,0.2-0.09,0.48,0.11,0.62l0.67,0.48
		c0.2,0.14,0.47,0.1,0.62-0.09l2.64-3.19c1.25,0.94,2.47,1.93,3.65,2.96l-2.57,3.25c-0.16,0.19-0.14,0.46,0.04,0.63l0.61,0.55
		c0.18,0.16,0.46,0.15,0.63-0.02l2.96-2.89c1.15,1.07,2.25,2.18,3.32,3.32l-2.89,2.96c-0.18,0.17-0.19,0.45-0.02,0.63l0.55,0.61
		c0.16,0.18,0.44,0.2,0.63,0.04l3.25-2.57c1.03,1.18,2.01,2.4,2.96,3.65l-3.19,2.64c-0.19,0.15-0.23,0.43-0.09,0.62l0.48,0.67
		c0.14,0.2,0.42,0.25,0.62,0.11l3.5-2.22c0.68,0.97,1.34,1.97,1.97,2.98l-26.59,17.43c-0.21,0.13-0.28,0.4-0.16,0.61
		s0.39,0.29,0.61,0.17l28.39-14.32c0.56,1.05,1.09,2.12,1.6,3.2l-3.68,1.93c-0.22,0.11-0.31,0.37-0.22,0.59l0.34,0.75
		c0.1,0.22,0.36,0.33,0.58,0.24l3.9-1.45c0.61,1.44,1.17,2.9,1.68,4.38l-3.86,1.53c-0.23,0.08-0.35,0.33-0.28,0.57l0.25,0.78
		c0.08,0.23,0.32,0.36,0.56,0.3l4.03-1.03c0.46,1.49,0.86,3,1.21,4.54l-4,1.12c-0.24,0.06-0.38,0.29-0.33,0.53l0.17,0.81
		c0.05,0.24,0.28,0.39,0.52,0.35l4.11-0.6c0.3,1.53,0.54,3.08,0.73,4.64l-4.09,0.69c-0.24,0.03-0.41,0.25-0.39,0.5l0.09,0.82
		c0.03,0.24,0.24,0.42,0.48,0.4l4.14-0.17c0.13,1.55,0.22,3.11,0.24,4.69l-4.13,0.26c-0.24,0.01-0.44,0.21-0.44,0.45v0.82
		c0,0.24,0.19,0.44,0.44,0.45l4.13,0.26C217.97,167.97,217.89,169.53,217.75,171.08z"/>
	<g>
		<g>
			<path class="st1" d="M226.58,94.5v-4.18c0,0,10.97,1.05,17.24,1.05s17.49-1.05,17.49-1.05v3.65c0,0-3.39,0-4.7,2.35
				c-1.22,2.44-1.4,5.26-0.52,7.83c0.78,2.61,30.3,76.79,30.3,76.79s24.02-66.34,25.08-69.96s1.83-9.93,0-13.06
				s-7.05-3.65-7.05-3.65v-3.93c0,0,7.31,0.79,14.85,0.79s15.67-0.79,15.67-0.79v3.65c0,0-2.61,0-5.75,2.87
				c-3.13,2.87-4.7,6.01-6.79,11.5s-35.78,96.89-35.78,96.89h-6.79c0,0-41.51-97.45-42.56-100.07c-1.05-2.61-2.61-6.01-4.96-7.83
				C230.84,95.72,228.79,94.7,226.58,94.5"/>
			<path class="st1" d="M315.93,139.96v-3.38c0,0,6.42,0.65,13.5,0.65s14.94-0.65,14.94-0.65v3.22c-1.08,0.1-2.09,0.55-2.89,1.29
				c-1.05,1.44-1.29,3.32-0.65,4.98c0.65,1.93,13.82,36,13.82,36s11.58-27.96,12.22-30.37c0.64-2.41,1.61-5.47,0.32-8.36
				c-0.75-1.71-2.22-3-4.02-3.54v-3.23c0,0,6.59,0.66,11.58,0.66c4.98,0,11.88-0.65,11.88-0.65v3.38c-1.49,0.27-2.87,0.93-4.02,1.92
				c-2.23,1.77-4.02,3.86-6.1,8.17c-2.09,4.31-20.58,45.16-22.83,49.82s-10.25,23.37-18.63,31.72s-15.42,8.52-15.42,8.52l-5.16-9.77
				c0,0,4.5,0.65,10.77-2.41s10.45-8.17,12.7-11.73s8.66-17.61,8.66-17.61s-20.73-48.7-21.54-50.49c-1.01-2.27-2.48-4.29-4.34-5.94
				c-1.41-1.11-3.06-1.88-4.82-2.23L315.93,139.96z"/>
			<path class="st1" d="M390.82,200.35v-17.61h5.67c0,0,0.9,5.07,3.88,8.35s8.65,8.95,19.1,8.95s21.79-6.56,21.79-19.4
				s-6.87-19.11-14.03-21.49s-17.91-6.27-23.58-9.26c-5.67-2.99-14.03-10.75-14.03-28.36s15.82-31.34,34.63-31.34
				s27.16,7.43,27.16,7.43l1.2,16.72h-4.77c0,0-0.3-2.69-2.69-6.57c-2.38-3.88-8.05-11.35-20.6-11.35c-12.55,0-20,8.65-20,20
				s5.08,15.22,11.35,17.61c6.27,2.39,13.14,5.07,18.81,7.17c5.67,2.09,21.19,9.25,21.19,29.85s-15.53,35.97-35.98,35.97
				s-29.1-6.72-29.1-6.72L390.82,200.35L390.82,200.35z"/>
			<path class="st1" d="M465.67,185.3c-0.15-2.84,0-40.84,0-40.84h-7.43v-5.19c0,0,7.61-1.27,12.53-9.27
				c6.24-10.15,7.16-15.51,7.16-15.51h3.58v22.08h17.45v7.85h-18.98v35.05c0,1.79,0.45,8.17,5.2,10.59c3.18,1.6,6.97,1.44,9.99-0.44
				c1.06-0.65,2.05-1.39,2.97-2.23l2.23,2.53l-15.36,15.22c-4.79-0.6-9.29-2.61-12.94-5.76c-6.26-5.37-6.26-11.19-6.41-14.02
				L465.67,185.3L465.67,185.3z"/>
			<path class="st1" d="M512.65,153.09h-3.31v-15.32c0,0,7.66-2.79,19.31-2.79c11.64,0,24.9,3.65,24.9,17.6
				c0,13.95-0.35,31.86-0.35,33.78s0,5.4,1.92,6.44c1.92,1.04,5.94,0.18,5.94,0.18l2.09,2.44l-11.49,9.74
				c-2.51-0.37-4.89-1.33-6.96-2.78c-2.02-1.37-3.74-3.14-5.05-5.2c0,0-8.7,8.01-16.89,8.01c-8.18,0-20.2-5.2-20.2-18.63
				c0-13.43,7.83-17.76,12.88-20.55c5.05-2.78,11.32-3.3,16.72-3.3c5.4,0,6.79,0.35,6.79,0.35s0-3.66-0.35-7.49
				s-1.74-11.14-11.67-11.14c-10.1,0-14.27,8.7-14.27,8.7v-0.04H512.65z M539.47,192.45l-0.53-23.53c-2.5-0.69-5.08-1.04-7.67-1.02
				c-4.36,0-14.11,1.91-14.11,14.28s9.58,13.23,13.41,13.23c3.83,0,8.91-2.97,8.91-2.97L539.47,192.45z"/>
			<path class="st1" d="M584.97,136.56h3.18v14.04c0,0,7.23-14.06,14.34-14.06c7.11,0,10.72,3.48,10.72,3.48v15.46h-3.06
				c0,0-2.12-5.4-9.35-5.4s-9.87,8.46-10.4,11.8s-1.11,29.52-1.11,32.03s0.27,5.43,1.95,6.68c1.12,0.78,2.41,1.25,3.76,1.39v3.31
				c0,0-5.58-0.56-12.39-0.56c-6.82,0-12.73,0.56-12.73,0.56v-3.2c1.22-0.34,2.33-1.02,3.2-1.95c1.11-1.4,1.4-3.91,1.4-6.27
				s-0.56-33.15-0.7-36.39s-0.97-5.43-2.78-6.82c-1.29-0.89-2.76-1.46-4.31-1.67v-3.48c3.56-0.65,6.99-1.87,10.16-3.62
				c5.84-3.07,8.07-5.29,8.07-5.29L584.97,136.56z"/>
			<g>
				<path class="st0" d="M609.51,202.31l-1.37-2.8c0.33-0.14,0.6-0.34,0.79-0.62c0.3-0.43,0.46-0.95,0.46-1.55
					c0-0.41-0.07-0.78-0.2-1.11c-0.14-0.33-0.34-0.61-0.62-0.83c-0.28-0.22-0.63-0.36-1.06-0.43c-0.1-0.02-0.2-0.03-0.31-0.03
					c-0.11-0.01-0.21-0.01-0.28-0.01h-3.05v7.37h1.23v-2.58h1.75l1.25,2.58L609.51,202.31L609.51,202.31z M605.11,196.09h1.76
					c0.07,0,0.15,0,0.23,0.01c0.09,0.01,0.16,0.02,0.24,0.04c0.2,0.05,0.37,0.14,0.48,0.27s0.2,0.28,0.25,0.44
					c0.05,0.17,0.07,0.33,0.07,0.48c0,0.16-0.03,0.32-0.07,0.48c-0.05,0.16-0.13,0.31-0.25,0.44s-0.28,0.22-0.48,0.27
					c-0.07,0.02-0.15,0.03-0.24,0.04c-0.09,0.01-0.16,0.01-0.23,0.01h-1.76V196.09z"/>
				<path class="st0" d="M606.53,193.34c2.92,0,5.29,2.37,5.29,5.29s-2.37,5.29-5.29,5.29s-5.29-2.37-5.29-5.29
					C601.24,195.7,603.61,193.34,606.53,193.34 M606.53,191.94c-3.68,0-6.68,3-6.68,6.68s3,6.68,6.68,6.68s6.68-3,6.68-6.68
					S610.21,191.94,606.53,191.94L606.53,191.94z"/>
			</g>
		</g>
		<g>
			<path class="st0" d="M365.62,227.12c0-7.75,5.93-13.35,13.9-13.35c4.23,0,7.86,1.52,10.27,4.34l-3.11,2.93
				c-1.89-2.04-4.23-3.04-6.93-3.04c-5.38,0-9.27,3.78-9.27,9.12s3.89,9.12,9.27,9.12c2.71,0,5.04-1,6.93-3.08l3.11,2.97
				c-2.41,2.82-6.04,4.34-10.31,4.34C371.55,240.47,365.62,234.87,365.62,227.12z"/>
			<path class="st0" d="M404.7,220.08v4.41c-0.41-0.07-0.74-0.11-1.07-0.11c-3.52,0-5.75,2.08-5.75,6.12v9.6h-4.63v-19.8h4.41v2.89
				C398.99,221.11,401.4,220.08,404.7,220.08z"/>
			<path class="st0" d="M426.52,231.68h-15.53c0.56,2.89,2.97,4.75,6.41,4.75c2.22,0,3.97-0.7,5.38-2.15l2.48,2.85
				c-1.78,2.11-4.56,3.23-7.97,3.23c-6.64,0-10.94-4.26-10.94-10.16s4.34-10.12,10.23-10.12c5.78,0,10.01,4.04,10.01,10.23
				C426.59,230.68,426.55,231.23,426.52,231.68z M410.95,228.6h11.23c-0.37-2.85-2.56-4.82-5.6-4.82
				C413.58,223.78,411.39,225.71,410.95,228.6z"/>
			<path class="st0" d="M476.69,239.02c-1.11,0.89-2.78,1.33-4.45,1.33c-4.34,0-6.82-2.3-6.82-6.67V224h-3.26v-3.71h3.26v-6.52h4.63
				v6.52h5.3V224h-5.3v9.57c0,1.93,0.96,2.97,2.74,2.97c0.96,0,1.89-0.26,2.6-0.82L476.69,239.02z"/>
			<path class="st0" d="M492.71,228.79v-15.01h4.82v14.83c0,5.34,2.41,7.64,6.6,7.64s6.56-2.3,6.56-7.64v-14.83h4.75v15.01
				c0,7.56-4.26,11.68-11.34,11.68C496.98,240.47,492.71,236.35,492.71,228.79z"/>
			<path class="st0" d="M539.11,228.75v11.34h-4.63v-10.75c0-3.52-1.74-5.23-4.71-5.23c-3.3,0-5.52,2-5.52,5.97v10.01h-4.63v-19.8
				h4.41v2.56c1.52-1.82,3.93-2.78,6.82-2.78C535.59,220.08,539.11,222.78,539.11,228.75z"/>
			<path class="st0" d="M551.16,230.2c0-5.93,4.45-10.12,10.53-10.12c6.15,0,10.57,4.19,10.57,10.12s-4.41,10.16-10.57,10.16
				C555.61,240.36,551.16,236.13,551.16,230.2z M567.59,230.2c0-3.78-2.52-6.19-5.89-6.19c-3.34,0-5.86,2.41-5.86,6.19
				s2.52,6.19,5.86,6.19C565.07,236.39,567.59,233.98,567.59,230.2z"/>
			<path class="st0" d="M595,228.75v11.34h-4.63v-10.75c0-3.52-1.74-5.23-4.71-5.23c-3.3,0-5.52,2-5.52,5.97v10.01h-4.63v-19.8h4.41
				v2.56c1.52-1.82,3.93-2.78,6.82-2.78C591.48,220.08,595,222.78,595,228.75z"/>
			<path class="st0" d="M450.11,213.77v26.32h-4.45v-2.56c-1.56,1.89-3.86,2.82-6.56,2.82c-5.75,0-10.01-4-10.01-10.16
				c0-6.15,4.26-10.12,10.01-10.12c2.56,0,4.82,0.85,6.38,2.67v-8.97H450.11z M445.55,230.2c0-3.78-2.56-6.19-5.89-6.19
				c-3.34,0-5.89,2.41-5.89,6.19s2.56,6.19,5.89,6.19S445.55,233.98,445.55,230.2z"/>
			<g>
				<path class="st0" d="M454.28,220.3h2.32h2.32v19.8h-2.32h-2.32V220.3z"/>
				<circle class="st0" cx="456.6" cy="213.77" r="2.97"/>
			</g>
			<g>
				<path class="st0" d="M543.29,220.3h2.32h2.32v19.8h-2.32h-2.32V220.3z"/>
				<circle class="st0" cx="545.6" cy="213.77" r="2.97"/>
			</g>
		</g>
	</g>
</g>
</svg>
